<?xml version="1.0" encoding="UTF-8" standalone="no"?>
<!-- Generator: Adobe Illustrator 23.0.2, SVG Export Plug-In . SVG Version: 6.00 Build 0)  -->

<svg
   xmlns:dc="http://purl.org/dc/elements/1.1/"
   xmlns:cc="http://creativecommons.org/ns#"
   xmlns:rdf="http://www.w3.org/1999/02/22-rdf-syntax-ns#"
   xmlns:svg="http://www.w3.org/2000/svg"
   xmlns="http://www.w3.org/2000/svg"
   xmlns:xlink="http://www.w3.org/1999/xlink"
   xmlns:sodipodi="http://sodipodi.sourceforge.net/DTD/sodipodi-0.dtd"
   xmlns:inkscape="http://www.inkscape.org/namespaces/inkscape"
   version="1.1"
   id="Layer_1"
   x="0px"
   y="0px"
   viewBox="0 0 118.38725 118.54973"
   xml:space="preserve"
   sodipodi:docname="iris-hep-logo.svg"
   width="118.38725"
   height="118.54973"
   inkscape:version="0.92.3 (2405546, 2018-03-11)"><metadata
   id="metadata1592"><rdf:RDF><cc:Work
       rdf:about=""><dc:format>image/svg+xml</dc:format><dc:type
         rdf:resource="http://purl.org/dc/dcmitype/StillImage" /><dc:title></dc:title></cc:Work></rdf:RDF></metadata><defs
   id="defs1590" /><sodipodi:namedview
   pagecolor="#ffffff"
   bordercolor="#666666"
   borderopacity="1"
   objecttolerance="10"
   gridtolerance="10"
   guidetolerance="10"
   inkscape:pageopacity="0"
   inkscape:pageshadow="2"
   inkscape:window-width="954"
   inkscape:window-height="987"
   id="namedview1588"
   showgrid="false"
   fit-margin-top="1"
   fit-margin-left="1"
   fit-margin-right="1"
   fit-margin-bottom="1"
   inkscape:zoom="3.3712566"
   inkscape:cx="99.064433"
   inkscape:cy="49.332571"
   inkscape:window-x="960"
   inkscape:window-y="0"
   inkscape:window-maximized="0"
   inkscape:current-layer="Layer_1" />
<style
   type="text/css"
   id="style1498">
	.st0{fill:url(#SVGID_1_);stroke:#575195;stroke-width:1.7;stroke-miterlimit:10;}
	.st1{fill:#0082CA;}
	.st2{fill:#575195;}
	.st3{fill:#270089;}
	.st4{fill:#8A84D6;}
	.st5{fill:url(#SVGID_4_);}
	.st6{fill:url(#SVGID_5_);}
	.st7{clip-path:url(#SVGID_7_);}
	.st8{clip-path:url(#SVGID_9_);fill:#A7A9AC;}
	.st9{clip-path:url(#SVGID_11_);}
	.st10{clip-path:url(#SVGID_13_);fill:#FFFFFF;}
</style>
<linearGradient
   id="SVGID_1_"
   gradientUnits="userSpaceOnUse"
   x1="132.30479"
   y1="184.7366"
   x2="185.43469"
   y2="184.7366"
   gradientTransform="translate(-102.25262,-125.25749)">
	<stop
   offset="0"
   style="stop-color:#7C76B7"
   id="stop1500" />
	<stop
   offset="0.5"
   style="stop-color:#6561AB"
   id="stop1502" />
	<stop
   offset="1"
   style="stop-color:#483F99"
   id="stop1504" />
</linearGradient>
<ellipse
   class="st0"
   cx="56.617378"
   cy="59.482521"
   rx="26.559999"
   ry="26.85"
   id="ellipse1507"
   style="fill:url(#SVGID_1_);stroke:#575195;stroke-width:1.70000005;stroke-miterlimit:10" />
<g
   id="g1515"
   transform="translate(-102.25262,-125.25749)">
	<defs
   id="defs1510">
		<rect
   id="SVGID_2_"
   x="122.68"
   y="151.11"
   width="74.339996"
   height="64.959999" />
	</defs>
	<clipPath
   id="SVGID_3_">
		<use
   xlink:href="#SVGID_2_"
   style="overflow:visible"
   id="use1512"
   x="0"
   y="0"
   width="100%"
   height="100%" />
	</clipPath>
</g>
<path
   class="st1"
   d="m 14.927382,31.792514 c 0,0 0.15,-0.24 0.46,-0.68 2.78,-3.94 18.28,-23.5399996 50.6,-21.1299996 0,0 37.039998,2.6799996 40.969998,47.6499996 0,0 1.68,38.27 -38.159998,50.709996 0,0 -67.3399999,9.57 -56.12,-59.899996 h 2.25 c 0,0 -3.93,43.06 27.5,52.239996 0,0 53.31,10.96 58.359998,-41.409996 0,0 -1.679998,-34.44 -24.689998,-40.15 0,0 -33.67,-12.0199996 -57.8,17.26"
   id="path1517"
   inkscape:connector-curvature="0"
   style="fill:#0082ca" />
<path
   class="st2"
   d="m 86.667382,80.082514 c 0,0 -0.11,0.18 -0.34,0.49 -2.04,2.81 -13.38,16.76 -36.21,14.41 0,0 -26.16,-2.63 -28.09,-35.36 0,0 -0.46,-27.82 27.97,-36.11 0,0 47.84,-5.7 38.58,44.53 l -1.59,-0.04 c 0,0 3.6,-31.19 -18.47,-38.44 0,0 -37.52,-8.95 -42.09,28.98 0,0 0.54,25.04 16.71,29.61 0,0 23.6,9.35 41.23,-11.46"
   id="path1519"
   inkscape:connector-curvature="0"
   style="fill:#575195" />
<path
   class="st3"
   d="m 17.177382,76.302514 c 0,0 -0.09,-0.22 -0.24,-0.65 -1.31,-3.82 -6.9799999,-23.99 10.53,-45.51 0,0 20.01,-24.7099996 52.4,-6.13 0,0 26.759998,16.98 15.62,50.82 0,0 -26.59,51.769996 -68.14,10.94 l 1.1,-1.57 c 0,0 27.24,23.179996 48.9,5.5 0,0 33.599998,-32.19 0.6,-60.57 0,0 -24.16,-15.16 -39.33,-1.73 0,0 -24.68,17.91 -16.69,48.72"
   id="path1521"
   inkscape:connector-curvature="0"
   style="fill:#270089" />
<path
   class="st4"
   d="m 81.327382,114.07251 c 0,0 -0.31,0.14 -0.9,0.35 -5.3,1.96 -33.29,10.58 -62.38,-13.26 0,0 -33.39,-27.229996 -6.71,-73.279996 0,0 24.28,-38.09 70.56,-23.5899996 0,0 70.459998,35.5699996 12.82,95.1899996 l -2.13,-1.49 c 0,0 32.849998,-38.97 9.199998,-68.75 0,0 -43.249998,-46.05 -83.459998,1.16 0,0 -21.6899999,34.39 -3.69,55.21 0,0 23.87,34.009996 66.6,21.789996"
   id="path1523"
   inkscape:connector-curvature="0"
   style="fill:#8a84d6" />
<linearGradient
   id="SVGID_4_"
   gradientUnits="userSpaceOnUse"
   x1="136.2314"
   y1="184.49899"
   x2="181.4584"
   y2="184.49899"
   gradientTransform="translate(-102.25262,-125.25749)">
	<stop
   offset="0"
   style="stop-color:#2BC4F3"
   id="stop1525" />
	<stop
   offset="0.5"
   style="stop-color:#00AEEE"
   id="stop1527" />
	<stop
   offset="1"
   style="stop-color:#0095DA"
   id="stop1529" />
</linearGradient>
<ellipse
   class="st5"
   cx="56.587379"
   cy="59.242516"
   rx="22.610001"
   ry="22.860001"
   id="ellipse1532"
   style="fill:url(#SVGID_4_)" />
<linearGradient
   id="SVGID_5_"
   gradientUnits="userSpaceOnUse"
   x1="140.3149"
   y1="184.7627"
   x2="177.4247"
   y2="184.7627"
   gradientTransform="matrix(-0.00673163,1,-1,-0.00673163,242.44508,-98.117186)">
	<stop
   offset="0"
   style="stop-color:#2BC4F3"
   id="stop1534" />
	<stop
   offset="0.5"
   style="stop-color:#00AEEE"
   id="stop1536" />
	<stop
   offset="1"
   style="stop-color:#0095DA"
   id="stop1538" />
</linearGradient>
<path
   class="st6"
   d="m 56.487382,78.062514 c -10.36,-0.07 -18.7,-8.43 -18.63,-18.68 0.07,-10.25 8.52,-18.5 18.88,-18.43 10.36,0.07 18.7,8.43 18.63,18.68 -0.06,10.25 -8.52,18.5 -18.88,18.43 z"
   id="path1541"
   inkscape:connector-curvature="0"
   style="fill:url(#SVGID_5_)" />
<g
   id="g1565"
   transform="translate(-102.25262,-125.25749)">
	<g
   id="g1563">
		<defs
   id="defs1544">
			<rect
   id="SVGID_6_"
   x="120.28"
   y="135.03"
   width="109.75"
   height="147.67999" />
		</defs>
		<clipPath
   id="SVGID_7_">
			<use
   xlink:href="#SVGID_6_"
   style="overflow:visible"
   id="use1546"
   x="0"
   y="0"
   width="100%"
   height="100%" />
		</clipPath>
		<g
   class="st7"
   clip-path="url(#SVGID_7_)"
   id="g1561">
			<defs
   id="defs1550">
				<rect
   id="SVGID_8_"
   x="120.28"
   y="135.03"
   width="109.75"
   height="147.67999" />
			</defs>
			<clipPath
   id="SVGID_9_">
				<use
   xlink:href="#SVGID_8_"
   style="overflow:visible"
   id="use1552"
   x="0"
   y="0"
   width="100%"
   height="100%" />
			</clipPath>
			<path
   class="st8"
   d="m 144.43,161.29 3.71,6.23 10.6,16.85 -23.5,-13.2 c 0,0 2.72,-5.33 9.19,-9.88"
   clip-path="url(#SVGID_9_)"
   id="path1555"
   inkscape:connector-curvature="0"
   style="fill:#a7a9ac" />
			<path
   class="st8"
   d="m 185.48,180.33 -22.82,5.11 c 0,0 20.95,2.18 23.21,2.99 0,0 0.31,-7.54 -0.39,-8.1"
   clip-path="url(#SVGID_9_)"
   id="path1557"
   inkscape:connector-curvature="0"
   style="fill:#a7a9ac" />
			<path
   class="st8"
   d="m 160.16,191.58 c 0,0 3.64,15.79 4.11,15.79 l -3.96,0.22 z"
   clip-path="url(#SVGID_9_)"
   id="path1559"
   inkscape:connector-curvature="0"
   style="fill:#a7a9ac" />
		</g>
	</g>
</g>
<g
   id="g1585"
   transform="translate(-102.25262,-125.25749)">
	<g
   id="g1583">
		<defs
   id="defs1568">
			<rect
   id="SVGID_10_"
   x="117.28"
   y="131.45"
   width="119.65"
   height="158.28" />
		</defs>
		<clipPath
   id="SVGID_11_">
			<use
   xlink:href="#SVGID_10_"
   style="overflow:visible"
   id="use1570"
   x="0"
   y="0"
   width="100%"
   height="100%" />
		</clipPath>
		<g
   class="st9"
   clip-path="url(#SVGID_11_)"
   id="g1581">
			<defs
   id="defs1574">
				<rect
   id="SVGID_12_"
   x="117.28"
   y="131.45"
   width="119.65"
   height="158.28" />
			</defs>
			<clipPath
   id="SVGID_13_">
				<use
   xlink:href="#SVGID_12_"
   style="overflow:visible"
   id="use1576"
   x="0"
   y="0"
   width="100%"
   height="100%" />
			</clipPath>
			<path
   class="st10"
   d="m 145.01,158.77 c 0,0 3.44,10.29 4.2,11.07 0,0 -6.11,-8.85 -6.37,-9.64 l -1.53,1.3 7.9,11.07 -9.17,-10.29 -1.27,1.3 9.51,9.9 -5.69,-5.03 -0.93,1.04 6.2,5.9 -6.79,-5.12 -0.93,1.39 13.59,9.72 c 0,0 -13.16,-5.82 -22.34,-6.34 l -0.76,2.69 c 0,0 13.42,1.04 25.9,7.38 0,0 -8.58,1.82 -9.09,2.34 l 0.51,2.78 c 0,0 5.77,-3.13 10.45,-3.99 0,0 2.46,3.99 -0.42,23.27 l 2.97,0.43 c 0,0 0.34,-12.76 0,-14.32 0,0 1.61,8.33 3.48,11.29 l 2.72,-0.61 c 0,0 -4.16,-7.47 -6.03,-18.06 0,0 4.59,4.69 6.03,6.94 l 1.27,-0.78 c 0,0 -4.76,-5.73 -7.73,-8.07 0,0 7.98,6.94 9.34,8.51 l 1.1,-1.48 c 0,0 -8.24,-6.16 -8.92,-6.68 0,0 12.65,1.3 25.73,5.9 l 0.85,-3.91 c 0,0 -16.22,-2.94 -21.57,-3.21 -5.35,-0.26 19.11,-0.26 21.57,0.34 v -2.08 c 0,0 -8.34,0.3 -11.69,0.63 0,0 10.24,-1.58 11.69,-1.41 v -1.74 c 0,0 -10.62,1.13 -13.93,2 0,0 11.72,-3.82 13.33,-4.86 L 187,174.87 c 0,0 -9.94,7.51 -26.07,9.48 0,0 7.05,-11.74 7.39,-27.8 l -3.4,-0.95 c 0,0 0.79,13.02 -5.72,27.17 0,0 -9.48,-11.2 -11.35,-25.09 z"
   clip-path="url(#SVGID_13_)"
   id="path1579"
   inkscape:connector-curvature="0"
   style="fill:#ffffff" />
		</g>
	</g>
</g>
</svg>